<mxfile host="app.diagrams.net" agent="Mozilla/5.0 (Windows NT 10.0; Win64; x64) AppleWebKit/537.36 (KHTML, like Gecko) Chrome/138.0.0.0 Safari/537.36" version="28.0.7">
  <diagram name="设备命名校验流程" id="6oob6z-n-mkgtFO_7ctP">
    <mxGraphModel dx="2253" dy="761" grid="1" gridSize="10" guides="1" tooltips="1" connect="1" arrows="1" fold="1" page="1" pageScale="1" pageWidth="827" pageHeight="1169" math="0" shadow="0">
      <root>
        <mxCell id="0" />
        <mxCell id="1" parent="0" />
        <mxCell id="ZZW7LxImDGQzBKNW6Znl-19" value="开始" style="ellipse;whiteSpace=wrap;html=1;fillColor=none;strokeColor=#82b366;" vertex="1" parent="1">
          <mxGeometry x="300" y="20" width="120" height="60" as="geometry" />
        </mxCell>
        <mxCell id="ZZW7LxImDGQzBKNW6Znl-20" value="&lt;font style=&quot;font-size: 14px;&quot;&gt;① 选择 Trigger&lt;/font&gt;" style="rounded=1;whiteSpace=wrap;html=1;fillColor=none;strokeColor=#6c8ebf;" vertex="1" parent="1">
          <mxGeometry x="270" y="100" width="180" height="60" as="geometry" />
        </mxCell>
        <mxCell id="ZZW7LxImDGQzBKNW6Znl-21" value="② 是否选择 condition？" style="rhombus;whiteSpace=wrap;html=1;fillColor=#fff2cc;strokeColor=#d6b656;" vertex="1" parent="1">
          <mxGeometry x="300" y="180" width="120" height="60" as="geometry" />
        </mxCell>
        <mxCell id="ZZW7LxImDGQzBKNW6Znl-22" value="选择了“持续一段时间”？" style="rhombus;whiteSpace=wrap;html=1;fillColor=#fff2cc;strokeColor=#d6b656;" vertex="1" parent="1">
          <mxGeometry x="30" y="180" width="160" height="60" as="geometry" />
        </mxCell>
        <mxCell id="ZZW7LxImDGQzBKNW6Znl-23" value="根据用户的选择校验数据完整性" style="rounded=1;whiteSpace=wrap;html=1;fillColor=#e1d5e7;strokeColor=#9673a6;" vertex="1" parent="1">
          <mxGeometry x="-20" y="360" width="260" height="80" as="geometry" />
        </mxCell>
        <mxCell id="ZZW7LxImDGQzBKNW6Znl-24" value="走原有的校验/创建逻辑" style="rounded=1;whiteSpace=wrap;html=1;fillColor=#f8cecc;strokeColor=#b85450;" vertex="1" parent="1">
          <mxGeometry x="310" y="320" width="180" height="60" as="geometry" />
        </mxCell>
        <mxCell id="ZZW7LxImDGQzBKNW6Znl-25" value="③ 选择 Action（走原有逻辑）" style="rounded=1;whiteSpace=wrap;html=1;fillColor=#dae8fc;strokeColor=#6c8ebf;" vertex="1" parent="1">
          <mxGeometry x="300" y="490" width="200" height="60" as="geometry" />
        </mxCell>
        <mxCell id="ZZW7LxImDGQzBKNW6Znl-26" value="④ 本地校验通过，请求服务端创建 scene" style="rounded=1;whiteSpace=wrap;html=1;fillColor=#d5e8d4;strokeColor=#82b366;" vertex="1" parent="1">
          <mxGeometry x="280" y="585" width="240" height="60" as="geometry" />
        </mxCell>
        <mxCell id="ZZW7LxImDGQzBKNW6Znl-27" value="结束" style="ellipse;whiteSpace=wrap;html=1;fillColor=#d5e8d4;strokeColor=#82b366;" vertex="1" parent="1">
          <mxGeometry x="340" y="690" width="120" height="60" as="geometry" />
        </mxCell>
        <mxCell id="ZZW7LxImDGQzBKNW6Znl-28" style="endArrow=block;" edge="1" parent="1" source="ZZW7LxImDGQzBKNW6Znl-19" target="ZZW7LxImDGQzBKNW6Znl-20">
          <mxGeometry relative="1" as="geometry" />
        </mxCell>
        <mxCell id="ZZW7LxImDGQzBKNW6Znl-29" style="endArrow=block;" edge="1" parent="1" source="ZZW7LxImDGQzBKNW6Znl-20" target="ZZW7LxImDGQzBKNW6Znl-21">
          <mxGeometry relative="1" as="geometry" />
        </mxCell>
        <mxCell id="ZZW7LxImDGQzBKNW6Znl-30" style="endArrow=block;" edge="1" parent="1" source="ZZW7LxImDGQzBKNW6Znl-21" target="ZZW7LxImDGQzBKNW6Znl-22">
          <mxGeometry relative="1" as="geometry" />
        </mxCell>
        <mxCell id="ZZW7LxImDGQzBKNW6Znl-31" style="endArrow=block;" edge="1" parent="1" source="ZZW7LxImDGQzBKNW6Znl-22" target="ZZW7LxImDGQzBKNW6Znl-23">
          <mxGeometry x="-0.5" relative="1" as="geometry" />
        </mxCell>
        <mxCell id="ZZW7LxImDGQzBKNW6Znl-32" style="endArrow=block;" edge="1" parent="1" source="ZZW7LxImDGQzBKNW6Znl-22" target="ZZW7LxImDGQzBKNW6Znl-24">
          <mxGeometry x="0.5" relative="1" as="geometry">
            <Array as="points">
              <mxPoint x="110" y="270" />
              <mxPoint x="400" y="270" />
            </Array>
          </mxGeometry>
        </mxCell>
        <mxCell id="ZZW7LxImDGQzBKNW6Znl-33" style="endArrow=block;" edge="1" parent="1" source="ZZW7LxImDGQzBKNW6Znl-23" target="ZZW7LxImDGQzBKNW6Znl-25">
          <mxGeometry relative="1" as="geometry">
            <Array as="points">
              <mxPoint x="110" y="520" />
            </Array>
          </mxGeometry>
        </mxCell>
        <mxCell id="ZZW7LxImDGQzBKNW6Znl-34" style="endArrow=block;" edge="1" parent="1" source="ZZW7LxImDGQzBKNW6Znl-24" target="ZZW7LxImDGQzBKNW6Znl-25">
          <mxGeometry relative="1" as="geometry" />
        </mxCell>
        <mxCell id="ZZW7LxImDGQzBKNW6Znl-35" style="endArrow=block;" edge="1" parent="1" source="ZZW7LxImDGQzBKNW6Znl-25" target="ZZW7LxImDGQzBKNW6Znl-26">
          <mxGeometry relative="1" as="geometry" />
        </mxCell>
        <mxCell id="ZZW7LxImDGQzBKNW6Znl-36" style="endArrow=block;" edge="1" parent="1" source="ZZW7LxImDGQzBKNW6Znl-26" target="ZZW7LxImDGQzBKNW6Znl-27">
          <mxGeometry relative="1" as="geometry" />
        </mxCell>
        <mxCell id="ZZW7LxImDGQzBKNW6Znl-37" style="endArrow=block;exitX=0;exitY=0.5;exitDx=0;exitDy=0;" edge="1" parent="1" source="ZZW7LxImDGQzBKNW6Znl-20">
          <mxGeometry x="-0.5" relative="1" as="geometry">
            <mxPoint x="109.5" y="60" as="sourcePoint" />
            <mxPoint x="109.5" y="180" as="targetPoint" />
            <Array as="points">
              <mxPoint x="110" y="130" />
            </Array>
          </mxGeometry>
        </mxCell>
        <mxCell id="ZZW7LxImDGQzBKNW6Znl-38" style="endArrow=block;exitX=1;exitY=0.5;exitDx=0;exitDy=0;entryX=1;entryY=0.5;entryDx=0;entryDy=0;" edge="1" parent="1" source="ZZW7LxImDGQzBKNW6Znl-20" target="ZZW7LxImDGQzBKNW6Znl-24">
          <mxGeometry relative="1" as="geometry">
            <mxPoint x="560" y="210" as="sourcePoint" />
            <mxPoint x="560" y="350" as="targetPoint" />
            <Array as="points">
              <mxPoint x="560" y="130" />
              <mxPoint x="560" y="350" />
            </Array>
          </mxGeometry>
        </mxCell>
        <mxCell id="ZZW7LxImDGQzBKNW6Znl-39" style="endArrow=block;exitX=1;exitY=0.5;exitDx=0;exitDy=0;" edge="1" parent="1" source="ZZW7LxImDGQzBKNW6Znl-21">
          <mxGeometry relative="1" as="geometry">
            <mxPoint x="460" y="210" as="sourcePoint" />
            <mxPoint x="460" y="320" as="targetPoint" />
            <Array as="points">
              <mxPoint x="460" y="210" />
            </Array>
          </mxGeometry>
        </mxCell>
      </root>
    </mxGraphModel>
  </diagram>
</mxfile>
